# xmcd CD database file
#
# Track frame offsets:
#	150
#	19986
#	38649
#
# Disc length: 735 seconds
#
# Revision: 5
# Processed by: cddbd v1.5.1PL0 Copyright (c) Steve Scherf et al.
# Submitted via: Feurio! 1.68 - http://www.feurio.com
#
DISCID=1b02dd03
DTITLE=Aeternom - Promo-Version
DYEAR=2005
DGENRE=Hardrock
TTITLE0=Here i stand (single)
TTITLE1=Fight for the kingdom (single)
TTITLE2=Break the chains
EXTD=
EXTT0=www.aeternom.de
EXTT1=www.aeternom.de
EXTT2=www.aeternom.de
PLAYORDER=
